#!OML:ASF F:\VICON\USERDATA\INSTALL\rory3\rory3.ASF
:FULLY-SPECIFIED
:DEGREES
19
root -0.6419760317479691 17.68320093248506 -13.63869065038759 -1.443402326311638 6.873764402984101 -3.8860754810843834
lfemur -23.751495920870408 -3.5018230004608584 -21.614798867659587
ltibia 40.959604633339474
lfoot -11.770491996728364 -10.71139388743888
ltoes -1.5494390239154843
rfemur -7.6380753301989905 -2.109073517608749 27.04960375529271
rtibia 96.09898865247399
rfoot 21.073189087599005 -13.16358962457693
rtoes 16.75529106259753
lowerback 16.497294635484977 1.0708685913804965 2.7687665359482985
upperback -0.08104018777185096 2.0672180383900507 1.1520152444739202
thorax -9.314926447008249 0.8915203793086182 -0.8248265632379427
lowerneck -18.957109094300737 -5.346237068944437 -1.6914257463877636
upperneck 15.2428908125415 -7.620285747627456 4.051617609656949
head 8.059281610746092 -3.300166925302631 0.6760169325131471
lclavicle -1.7288339579140553e-15 1.783627740629379e-15
lhumerus -61.08469310126232 -12.545202548319788 100.14099148708108
lradius 104.07300444904128
lwrist 33.45060031305122
lhand -25.856195481089546 0.7974909758354536
lfingers 7.12502
lthumb 0.684611519400963 30.77610395177544
rclavicle -1.7288339579140553e-15 1.783627740629379e-15
rhumerus -48.45430221697046 14.403489815674888 -101.75298744529049
rradius 104.67300786406638
rwrist -7.877918230301855
rhand -19.721584468400557 40.739094005457744
rfingers 7.12502
rthumb 6.608565532168662 10.86219468936517
20
root -0.6466339103870664 17.47490431414389 -12.685891039268492 -1.142003884183656 6.63226503288362 -2.5196102223006083
lfemur -22.37229655418441 -3.797762318587235 -23.29889628152626
ltibia 45.081003001255546
lfoot -17.15248826865023 -7.689818902664648
ltoes 2.0965073225176187
rfemur -13.30770288516755 -3.7861098897905276 23.90240920158558
rtibia 102.40698647708163
rfoot 20.9978891398462 -9.95280439973143
rtoes 15.041692191438207
lowerback 16.84359273138025 1.0303288417645033 0.9001372992779871
upperback 0.15045853836227496 1.6215396971318086 0.8064198388995274
thorax -9.309296525011272 0.7562996184504949 -0.03689989538283012
lowerneck -19.70270474383185 -5.254087752484087 -1.3674711134684912
upperneck 15.087891778435758 -7.553946082323309 3.969378362841346
head 8.117170200135464 -3.248607496699133 0.5904370412084002
lclavicle -1.7288340642170575e-15 1.7836277577894746e-15
lhumerus -56.90879589786926 -14.232599849969652 100.17699136519632
lradius 104.53000395767764
lwrist 34.90129571553891
lhand -24.961000402569145 0.056295737182686656
lfingers 7.12502
lthumb 1.5492695971520145 30.030406436413436
rclavicle -1.7288340642170575e-15 1.7836277577894746e-15
rhumerus -49.23730147087694 13.324791676259078 -101.86498716016362
rradius 101.65501299726837
rwrist -6.520573173385253
rhand -22.246571700123983 37.443715014804695
rfingers 7.12502
rthumb 4.170698307340958 7.504846518230566
21
root -0.4098060316669539 16.89694410495325 -4.501572176470894 2.077012694440703 3.7129206935769306 0.4052905160592335
lfemur -21.20725002154556 0.541548298496092 -26.696236385936878
ltibia 48.70094535754507
lfoot -23.404978180876636 0.4453665352596241
ltoes 1.192690099399142
rfemur -23.029975449621926 -4.364426350134231 21.260966732669438
rtibia 113.93942630316793
rfoot 10.723045166114089 -9.648759537450848
rtoes 20.169147729264314
lowerback 17.522705554565313 1.916236469842103 -2.6185006469295633
upperback 0.07550823310725563 2.0583243417708355 -0.3790127598776176
thorax -10.232727341771664 1.0845886657344568 0.8350774869375572
lowerneck -20.82595234203716 -4.811751397605487 -1.8455831960649536
upperneck 12.22556511444423 -6.811475026036736 4.542485244206038
head 7.454864627800972 -2.884267682700896 1.1246978313331586
lclavicle -2.8361006788311266e-15 9.809664842808199e-16
lhumerus -48.586925691266515 -17.840529809895603 100.22397803863763
lradius 103.2317808423512
lwrist 31.526713365051293
lhand -26.315951006864946 3.675961886590035
lfingers 7.12502
lthumb 0.2406764973489537 33.64138934147045
rclavicle -2.8361006788311266e-15 9.809664842808199e-16
rhumerus -49.10540509602181 6.710828482536539 -100.84369825119519
rradius 98.23901948268434
rwrist -7.885577557284764
rhand -18.42042549595491 38.774314916066814
rfingers 7.12502
rthumb 7.863690823243239 8.768363706877109
22
root -0.4322774927340157 16.779704498444943 -6.343861349142008 2.705661167709482 3.2199549495450794 1.2374475628389208
lfemur -17.46940044989374 0.6793316181876026 -27.273999542408973
ltibia 52.21795889179591
lfoot -26.495718670032982 3.687113462146562
ltoes -0.8722147732730008
rfemur -30.76320639314266 -5.486000547599625 19.930249501875675
rtibia 120.57977947820629
rfoot 8.489054980930788 -8.407651136777806
rtoes 20.208133014745098
lowerback 17.948309064858773 1.7061166921036017 -3.721609274444422
upperback 0.18645330467945165 1.5465164579819868 -0.4686950449534293
thorax -10.40800675693766 0.8978800505552202 1.7723386564836923
lowerneck -21.212405772947736 -4.563192941650156 -1.79775337145254
upperneck 11.970210168220474 -6.490250654279823 4.750398864110267
head 7.4239534534996885 -2.707777743887914 1.2253036095200525
lclavicle -2.05436042063267e-15 1.5476624410763886e-15
lhumerus -42.75455149952805 -20.26161760766674 100.59663724649687
lradius 103.32030720269067
lwrist 31.765022284951545
lhand -25.98006090344072 3.595798912779914
lfingers 7.12502
lthumb 0.5650471834400236 33.55920942041767
rclavicle -2.05436042063267e-15 1.5476624410763886e-15
rhumerus -50.891725386232096 5.466566364051783 -101.29698446702793
rradius 97.85125960682299
rwrist -8.324611499124307
rhand -18.015905609245454 38.97019288525415
rfingers 7.12502
rthumb 8.253963505253747 8.982529376550511
